<?xml version="1.0" encoding="utf-8"?>
<!-- Generator: Adobe Illustrator 16.0.3, SVG Export Plug-In . SVG Version: 6.00 Build 0)  -->
<!DOCTYPE svg PUBLIC "-//W3C//DTD SVG 1.1//EN" "http://www.w3.org/Graphics/SVG/1.1/DTD/svg11.dtd">
<svg version="1.1" id="Layer_1" xmlns="http://www.w3.org/2000/svg" xmlns:xlink="http://www.w3.org/1999/xlink" x="0px" y="0px"
	 width="166.83px" height="28.296px" viewBox="0 0 166.83 28.296" enable-background="new 0 0 166.83 28.296" xml:space="preserve">
<g>
	<g>
		<path fill="#4D4D4D" d="M46.197,15.702c0-1.015,0.15-1.903,0.452-2.668c0.301-0.764,0.701-1.4,1.201-1.907s1.073-0.889,1.72-1.146
			c0.647-0.257,1.309-0.386,1.984-0.386c1.588,0,2.826,0.493,3.716,1.478s1.334,2.456,1.334,4.41c0,0.147-0.004,0.313-0.011,0.496
			c-0.008,0.185-0.019,0.35-0.033,0.496h-7.607c0.073,0.927,0.4,1.643,0.981,2.15c0.58,0.507,1.422,0.761,2.524,0.761
			c0.646,0,1.238-0.059,1.775-0.177c0.536-0.117,0.959-0.242,1.268-0.375l0.353,2.184c-0.146,0.073-0.349,0.15-0.606,0.231
			c-0.257,0.081-0.551,0.154-0.882,0.22c-0.33,0.066-0.688,0.122-1.069,0.166S52.525,21.7,52.129,21.7
			c-1.015,0-1.896-0.151-2.646-0.452c-0.75-0.302-1.367-0.721-1.853-1.257c-0.484-0.537-0.845-1.169-1.08-1.896
			S46.197,16.569,46.197,15.702z M53.937,14.512c0-0.367-0.052-0.717-0.154-1.048c-0.104-0.33-0.254-0.617-0.452-0.859
			c-0.198-0.243-0.441-0.434-0.728-0.574c-0.287-0.139-0.629-0.209-1.025-0.209c-0.412,0-0.771,0.077-1.08,0.231
			c-0.309,0.155-0.57,0.357-0.783,0.606c-0.213,0.25-0.379,0.537-0.496,0.86c-0.118,0.323-0.198,0.654-0.242,0.992H53.937z"/>
		<path fill="#4D4D4D" d="M58.236,13.895h5.932v2.447h-5.932V13.895z"/>
		<path fill="#4D4D4D" d="M76.758,15.658c0,0.926-0.136,1.761-0.407,2.503c-0.272,0.742-0.662,1.378-1.169,1.907
			s-1.121,0.934-1.841,1.213C72.62,21.56,71.804,21.7,70.893,21.7c-0.882,0-1.724-0.066-2.524-0.199
			c-0.802-0.132-1.467-0.278-1.995-0.44V4.744l2.668-0.441v5.975c0.309-0.162,0.687-0.309,1.135-0.441s0.944-0.198,1.489-0.198
			c0.808,0,1.532,0.143,2.172,0.43c0.639,0.287,1.172,0.695,1.599,1.224c0.426,0.529,0.753,1.165,0.98,1.908
			C76.644,13.942,76.758,14.762,76.758,15.658z M74.023,15.614c0-1.132-0.224-2.029-0.672-2.69
			c-0.449-0.661-1.158-0.992-2.128-0.992c-0.441,0-0.856,0.066-1.246,0.199s-0.702,0.279-0.937,0.441v6.637
			c0.19,0.044,0.437,0.085,0.738,0.121c0.301,0.037,0.665,0.056,1.092,0.056c0.984,0,1.756-0.334,2.314-1.004
			C73.744,17.713,74.023,16.79,74.023,15.614z"/>
		<path fill="#4D4D4D" d="M82.49,6.507c0,0.5-0.162,0.897-0.485,1.191s-0.706,0.441-1.146,0.441c-0.456,0-0.846-0.147-1.169-0.441
			s-0.485-0.691-0.485-1.191c0-0.514,0.162-0.918,0.485-1.212s0.713-0.441,1.169-0.441c0.44,0,0.823,0.147,1.146,0.441
			S82.49,5.993,82.49,6.507z M82.203,21.413h-2.668V9.881h2.668V21.413z"/>
		<path fill="#4D4D4D" d="M95.984,15.658c0,0.926-0.136,1.761-0.407,2.503c-0.272,0.742-0.662,1.378-1.169,1.907
			s-1.121,0.934-1.841,1.213C91.847,21.56,91.03,21.7,90.119,21.7c-0.882,0-1.724-0.066-2.524-0.199
			c-0.802-0.132-1.467-0.278-1.995-0.44V4.744l2.668-0.441v5.975c0.309-0.162,0.687-0.309,1.135-0.441s0.944-0.198,1.489-0.198
			c0.808,0,1.532,0.143,2.172,0.43c0.639,0.287,1.172,0.695,1.599,1.224c0.426,0.529,0.753,1.165,0.98,1.908
			C95.87,13.942,95.984,14.762,95.984,15.658z M93.25,15.614c0-1.132-0.224-2.029-0.672-2.69c-0.449-0.661-1.158-0.992-2.128-0.992
			c-0.441,0-0.856,0.066-1.246,0.199s-0.702,0.279-0.937,0.441v6.637c0.19,0.044,0.437,0.085,0.738,0.121
			c0.301,0.037,0.665,0.056,1.092,0.056c0.984,0,1.756-0.334,2.314-1.004C92.971,17.713,93.25,16.79,93.25,15.614z"/>
		<path fill="#4D4D4D" d="M102.754,21.634c-0.794-0.015-1.452-0.104-1.974-0.265c-0.521-0.162-0.937-0.394-1.246-0.694
			c-0.309-0.302-0.525-0.677-0.65-1.125s-0.188-0.959-0.188-1.532V4.744l2.668-0.441v13.208c0,0.323,0.026,0.595,0.077,0.815
			c0.052,0.221,0.144,0.408,0.276,0.563c0.132,0.154,0.312,0.271,0.54,0.353c0.228,0.081,0.519,0.144,0.871,0.188L102.754,21.634z"
			/>
		<path fill="#4D4D4D" d="M108.267,6.507c0,0.5-0.162,0.897-0.485,1.191s-0.706,0.441-1.146,0.441c-0.456,0-0.846-0.147-1.169-0.441
			s-0.485-0.691-0.485-1.191c0-0.514,0.162-0.918,0.485-1.212s0.713-0.441,1.169-0.441c0.44,0,0.823,0.147,1.146,0.441
			S108.267,5.993,108.267,6.507z M107.979,21.413h-2.668V9.881h2.668V21.413z"/>
		<path fill="#4D4D4D" d="M121.804,15.636c0,0.912-0.132,1.742-0.396,2.492c-0.265,0.749-0.64,1.389-1.125,1.918
			c-0.484,0.529-1.069,0.941-1.753,1.235c-0.684,0.293-1.437,0.44-2.26,0.44s-1.573-0.147-2.249-0.44
			c-0.676-0.294-1.257-0.706-1.742-1.235c-0.484-0.529-0.863-1.169-1.136-1.918c-0.271-0.75-0.407-1.58-0.407-2.492
			c0-0.911,0.136-1.738,0.407-2.48c0.272-0.742,0.654-1.378,1.147-1.907c0.492-0.529,1.076-0.937,1.753-1.224
			c0.676-0.287,1.418-0.43,2.227-0.43s1.555,0.144,2.238,0.43s1.268,0.694,1.753,1.224s0.863,1.166,1.136,1.907
			C121.668,13.897,121.804,14.725,121.804,15.636z M119.07,15.636c0-1.146-0.247-2.054-0.739-2.723s-1.18-1.003-2.062-1.003
			s-1.569,0.334-2.062,1.003c-0.493,0.669-0.738,1.576-0.738,2.723c0,1.162,0.245,2.081,0.738,2.757
			c0.492,0.676,1.18,1.014,2.062,1.014s1.569-0.338,2.062-1.014S119.07,16.798,119.07,15.636z"/>
		<path fill="#4D4D4D" d="M124.428,6.838l2.668-0.441v3.483h4.102v2.227h-4.102v4.697c0,0.926,0.146,1.588,0.441,1.984
			c0.294,0.397,0.794,0.596,1.499,0.596c0.485,0,0.915-0.052,1.29-0.154s0.673-0.199,0.893-0.287l0.441,2.117
			c-0.309,0.132-0.713,0.269-1.213,0.407c-0.5,0.14-1.088,0.21-1.764,0.21c-0.823,0-1.511-0.11-2.062-0.331
			c-0.552-0.221-0.989-0.54-1.313-0.959s-0.551-0.926-0.684-1.521c-0.132-0.595-0.198-1.275-0.198-2.039V6.838z"/>
		<path fill="#4D4D4D" d="M132.939,15.702c0-1.015,0.15-1.903,0.452-2.668c0.301-0.764,0.701-1.4,1.201-1.907
			s1.073-0.889,1.72-1.146c0.647-0.257,1.309-0.386,1.984-0.386c1.588,0,2.826,0.493,3.716,1.478s1.334,2.456,1.334,4.41
			c0,0.147-0.004,0.313-0.011,0.496c-0.008,0.185-0.019,0.35-0.033,0.496h-7.607c0.073,0.927,0.4,1.643,0.981,2.15
			c0.58,0.507,1.422,0.761,2.524,0.761c0.646,0,1.238-0.059,1.775-0.177c0.536-0.117,0.959-0.242,1.268-0.375l0.353,2.184
			c-0.146,0.073-0.349,0.15-0.606,0.231c-0.257,0.081-0.551,0.154-0.882,0.22c-0.33,0.066-0.688,0.122-1.069,0.166
			s-0.771,0.066-1.168,0.066c-1.015,0-1.896-0.151-2.646-0.452c-0.75-0.302-1.367-0.721-1.853-1.257
			c-0.484-0.537-0.845-1.169-1.08-1.896S132.939,16.569,132.939,15.702z M140.679,14.512c0-0.367-0.052-0.717-0.154-1.048
			c-0.104-0.33-0.254-0.617-0.452-0.859c-0.198-0.243-0.441-0.434-0.728-0.574c-0.287-0.139-0.629-0.209-1.025-0.209
			c-0.412,0-0.771,0.077-1.08,0.231c-0.309,0.155-0.57,0.357-0.783,0.606c-0.213,0.25-0.379,0.537-0.496,0.86
			c-0.118,0.323-0.198,0.654-0.242,0.992H140.679z"/>
		<path fill="#4D4D4D" d="M148.838,14.379c0.338-0.353,0.697-0.73,1.08-1.136c0.382-0.404,0.757-0.808,1.125-1.212
			c0.367-0.404,0.716-0.793,1.047-1.168s0.613-0.702,0.849-0.981h3.153c-0.733,0.824-1.507,1.676-2.321,2.558
			c-0.813,0.882-1.631,1.742-2.452,2.58c0.439,0.368,0.901,0.813,1.386,1.334c0.484,0.522,0.953,1.077,1.408,1.665
			s0.88,1.176,1.276,1.764c0.396,0.588,0.726,1.132,0.99,1.632h-3.087c-0.265-0.455-0.57-0.934-0.915-1.434
			c-0.346-0.499-0.717-0.984-1.114-1.455c-0.396-0.47-0.801-0.915-1.213-1.334c-0.411-0.419-0.815-0.775-1.212-1.069v5.292h-2.668
			V4.744l2.668-0.441V14.379z"/>
		<path fill="#4D4D4D" d="M162.155,9.594c0.882,0,1.624,0.11,2.228,0.331c0.603,0.22,1.084,0.529,1.444,0.926
			c0.359,0.397,0.617,0.879,0.771,1.444c0.154,0.567,0.231,1.187,0.231,1.864v6.989c-0.412,0.088-1.033,0.195-1.863,0.319
			c-0.83,0.125-1.768,0.188-2.812,0.188c-0.69,0-1.322-0.065-1.896-0.198c-0.574-0.132-1.063-0.345-1.467-0.64
			c-0.404-0.294-0.721-0.676-0.948-1.146c-0.228-0.47-0.342-1.051-0.342-1.741c0-0.662,0.129-1.221,0.386-1.676
			c0.257-0.456,0.606-0.827,1.048-1.114c0.44-0.286,0.951-0.492,1.532-0.617c0.58-0.125,1.187-0.188,1.819-0.188
			c0.294,0,0.603,0.019,0.926,0.056c0.323,0.036,0.669,0.099,1.036,0.188v-0.441c0-0.309-0.036-0.603-0.11-0.882
			c-0.073-0.279-0.202-0.525-0.386-0.738c-0.184-0.213-0.426-0.379-0.728-0.497s-0.68-0.176-1.136-0.176
			c-0.617,0-1.183,0.044-1.697,0.132c-0.515,0.088-0.934,0.191-1.257,0.309l-0.331-2.161c0.338-0.117,0.83-0.235,1.478-0.353
			C160.729,9.653,161.42,9.594,162.155,9.594z M162.376,19.539c0.823,0,1.448-0.044,1.874-0.133v-2.954
			c-0.146-0.044-0.36-0.089-0.639-0.133c-0.28-0.044-0.589-0.065-0.927-0.065c-0.294,0-0.592,0.021-0.893,0.065
			c-0.302,0.044-0.573,0.125-0.816,0.243c-0.242,0.117-0.438,0.283-0.584,0.496c-0.147,0.213-0.221,0.481-0.221,0.805
			c0,0.632,0.198,1.069,0.596,1.312C161.163,19.418,161.7,19.539,162.376,19.539z"/>
	</g>
	<g>
		<g>
			<path fill="#4D4D4D" d="M37.193,3.831c0-0.466-0.375-0.843-0.843-0.843h-2.698V0.847C33.652,0.377,33.273,0,32.805,0
				c-9.054,0-12.852,1.81-14.206,2.739C17.245,1.81,13.441,0,4.391,0C3.926,0,3.544,0.377,3.544,0.847v2.141H0.848
				C0.38,2.988,0,3.365,0,3.831v9.321l0,0v14.299c0,0.465,0.38,0.845,0.848,0.845h32.805h0.596h2.101c0.47,0,0.845-0.38,0.845-0.845
				V14.604l0,0V3.831z M19.443,4.217c0.817-0.584,4.023-2.407,12.518-2.519v21.813c-7.056,0.089-10.733,1.307-12.518,2.23V4.217z
				 M5.236,1.698c8.473,0.111,11.697,1.936,12.521,2.521v21.522c-1.789-0.924-5.468-2.142-12.521-2.23V1.698z M1.69,13.259V4.678
				h1.854V24.35c0,0.466,0.382,0.846,0.847,0.846c5.543,0,8.973,0.713,11.002,1.409H1.693V13.259H1.69z M35.504,26.604h-1.256
				h-0.596H21.787c2.024-0.696,5.452-1.409,11.018-1.409c0.469,0,0.848-0.38,0.848-0.846V4.678h1.852v9.926l0,0V26.604z"/>
			<path fill="#4D4D4D" d="M15.938,6.335c-1.665-1.117-4.399-1.682-8.124-1.682c-0.468,0-0.846,0.381-0.846,0.847
				c0,0.464,0.378,0.847,0.846,0.847c2.324,0,5.464,0.241,7.203,1.404c0.145,0.094,0.303,0.141,0.46,0.141
				c0.271,0,0.537-0.132,0.704-0.377C16.439,7.123,16.33,6.594,15.938,6.335z"/>
			<path fill="#4D4D4D" d="M15.938,10.843c-1.665-1.119-4.399-1.683-8.124-1.683c-0.468,0-0.846,0.376-0.846,0.846
				c0,0.465,0.378,0.843,0.846,0.843c2.324,0,5.464,0.242,7.203,1.406c0.145,0.096,0.303,0.145,0.46,0.145
				c0.271,0,0.537-0.133,0.704-0.383C16.439,11.632,16.33,11.103,15.938,10.843z"/>
			<path fill="#4D4D4D" d="M15.938,15.348c-1.665-1.114-4.399-1.684-8.124-1.684c-0.468,0-0.846,0.383-0.846,0.851
				c0,0.462,0.378,0.844,0.846,0.844c2.324,0,5.464,0.242,7.203,1.404c0.145,0.096,0.303,0.146,0.46,0.146
				c0.271,0,0.537-0.137,0.704-0.382C16.439,16.141,16.33,15.606,15.938,15.348z"/>
			<path fill="#4D4D4D" d="M15.938,19.857c-1.665-1.121-4.399-1.684-8.124-1.684c-0.468,0-0.846,0.377-0.846,0.849
				c0,0.465,0.378,0.841,0.846,0.841c2.324,0,5.464,0.245,7.203,1.408c0.145,0.096,0.303,0.143,0.46,0.143
				c0.271,0,0.537-0.134,0.704-0.379C16.439,20.646,16.33,20.116,15.938,19.857z"/>
			<path fill="#4D4D4D" d="M29.385,4.653c-3.726,0-6.464,0.565-8.127,1.682c-0.39,0.259-0.5,0.788-0.241,1.179
				c0.161,0.245,0.43,0.377,0.702,0.377c0.155,0,0.319-0.047,0.462-0.141c1.739-1.163,4.876-1.404,7.204-1.404
				c0.467,0,0.848-0.383,0.848-0.847C30.232,5.034,29.852,4.653,29.385,4.653z"/>
			<path fill="#4D4D4D" d="M29.385,9.161c-3.726,0-6.464,0.563-8.127,1.683c-0.39,0.259-0.5,0.789-0.241,1.174
				c0.161,0.25,0.43,0.383,0.702,0.383c0.155,0,0.319-0.048,0.462-0.145c1.739-1.164,4.876-1.406,7.204-1.406
				c0.467,0,0.848-0.378,0.848-0.843C30.232,9.537,29.852,9.161,29.385,9.161z"/>
			<path fill="#4D4D4D" d="M29.385,13.664c-3.726,0-6.464,0.569-8.127,1.684c-0.39,0.259-0.5,0.793-0.241,1.179
				c0.161,0.245,0.43,0.382,0.702,0.382c0.155,0,0.319-0.05,0.462-0.146c1.739-1.162,4.876-1.404,7.204-1.404
				c0.467,0,0.848-0.382,0.848-0.844C30.232,14.047,29.852,13.664,29.385,13.664z"/>
			<path fill="#4D4D4D" d="M29.385,18.174c-3.726,0-6.464,0.563-8.127,1.684c-0.39,0.259-0.5,0.788-0.241,1.178
				c0.161,0.245,0.43,0.379,0.702,0.379c0.155,0,0.319-0.047,0.462-0.143c1.739-1.163,4.876-1.408,7.204-1.408
				c0.467,0,0.848-0.376,0.848-0.841C30.232,18.551,29.852,18.174,29.385,18.174z"/>
		</g>
	</g>
</g>
</svg>
